<svg width="30" height="26" viewBox="0 0 30 26" fill="#746763" xmlns="http://www.w3.org/2000/svg">
<g>
<path d="M27.6569 3.64545H6.53242L6.08905 1.07387C6.03579 0.772877 5.87821 0.500262 5.64399 0.303872C5.40976 0.107481 5.11384 -0.000136073 4.80818 -9.15389e-05H1.30057C0.95564 -9.15316e-05 0.624834 0.136933 0.380929 0.380838C0.137024 0.624742 0 0.955548 0 1.30048C0 1.64541 0.137024 1.97622 0.380929 2.22013C0.624834 2.46403 0.95564 2.60105 1.30057 2.60105H3.70466L4.54215 7.35997L5.81317 16.6019C5.88041 17.1453 6.14381 17.6455 6.55385 18.0083C6.9639 18.3712 7.49236 18.5718 8.03991 18.5725H26.2381C26.7856 18.5718 27.3141 18.3712 27.7241 18.0083C28.1342 17.6455 28.3976 17.1453 28.4648 16.6019L29.8836 6.20719C29.9288 5.88851 29.905 5.56385 29.8137 5.25519C29.7225 4.94653 29.566 4.66107 29.3549 4.41815C29.1437 4.17523 28.8828 3.98052 28.5899 3.84721C28.2969 3.7139 27.9787 3.64509 27.6569 3.64545Z" />
<path d="M10.9462 20.4815C10.4001 20.4815 9.86632 20.6435 9.41243 20.9471C8.95854 21.2507 8.60495 21.6821 8.39643 22.1868C8.18792 22.6915 8.13386 23.2467 8.24111 23.7821C8.34836 24.3175 8.61209 24.8091 8.9989 25.1945C9.38571 25.5799 9.8782 25.8419 10.414 25.9472C10.9498 26.0526 11.5048 25.9965 12.0087 25.7862C12.5127 25.5759 12.9429 25.2208 13.2448 24.7658C13.5468 24.3108 13.7069 23.7765 13.7049 23.2304C13.7049 22.8686 13.6335 22.5103 13.4948 22.1761C13.356 21.842 13.1526 21.5385 12.8963 21.2831C12.64 21.0277 12.3358 20.8254 12.0012 20.6879C11.6665 20.5503 11.308 20.4802 10.9462 20.4815Z" />
<path d="M22.9867 20.4819C22.4429 20.4916 21.914 20.6619 21.4667 20.9713C21.0193 21.2807 20.6734 21.7155 20.4724 22.2209C20.2715 22.7264 20.2244 23.28 20.3371 23.8121C20.4499 24.3442 20.7174 24.8311 21.1061 25.2116C21.4948 25.5921 21.9873 25.8493 22.5217 25.9507C23.0561 26.0521 23.6086 25.9932 24.1096 25.7815C24.6107 25.5699 25.038 25.2148 25.3378 24.7609C25.6377 24.3071 25.7966 23.7748 25.7948 23.2308C25.7935 22.8652 25.7196 22.5034 25.5773 22.1666C25.435 21.8298 25.2272 21.5246 24.9659 21.2688C24.7046 21.0131 24.3951 20.8118 24.0553 20.6767C23.7156 20.5416 23.3523 20.4754 22.9867 20.4819V20.4819Z" />
</g>
</svg>
