<svg width="64" height="67" viewBox="0 0 64 67" fill="#746763" xmlns="http://www.w3.org/2000/svg">
<g filter="url(#filter0_d_103_140)">
<path d="M41.9038 31.5957C41.8775 31.0357 41.8425 30.4888 41.8075 29.9595C41.714 28.7266 41.1651 27.5726 40.2676 26.7222L38.1196 24.6791L31.9118 18.7645C31.3954 18.2736 30.7102 17.9999 29.9978 17.9999C29.2854 17.9999 28.6002 18.2736 28.0838 18.7645L21.8804 24.6791L19.7324 26.7222C18.8312 27.5704 18.2803 28.7253 18.1881 29.9595C18.1312 30.7426 18.0831 31.5607 18.0525 32.405C18.0175 33.3587 18 34.3518 18 35.3667C18 37.3922 18.0744 39.304 18.2056 41.0539C18.2503 41.7049 18.5171 42.3208 18.9614 42.7986C19.4058 43.2764 20.0007 43.5871 20.6467 43.6788C21.1455 43.7444 21.6748 43.81 22.2304 43.8669C23.136 43.9588 24.1159 44.0331 25.1528 44.09C25.3431 44.1013 25.5337 44.0736 25.713 44.0087C25.8923 43.9437 26.0564 43.8427 26.1952 43.7121C26.3341 43.5814 26.4448 43.4237 26.5206 43.2487C26.5963 43.0738 26.6355 42.8851 26.6358 42.6945V35.8217C26.6358 35.1255 26.9123 34.4579 27.4046 33.9656C27.8969 33.4734 28.5645 33.1968 29.2607 33.1968H30.7393C31.4355 33.1968 32.1031 33.4734 32.5954 33.9656C33.0877 34.4579 33.3642 35.1255 33.3642 35.8217V42.6901C33.3645 42.8808 33.4037 43.0694 33.4794 43.2444C33.5552 43.4194 33.6659 43.577 33.8048 43.7077C33.9436 43.8384 34.1077 43.9393 34.287 44.0043C34.4663 44.0693 34.6569 44.097 34.8472 44.0856C35.8841 44.0288 36.864 43.9544 37.7696 43.8625C38.3252 43.8057 38.8545 43.74 39.3533 43.6744C39.9993 43.5827 40.5942 43.272 41.0386 42.7942C41.4829 42.3164 41.7497 41.7005 41.7944 41.0495C41.9256 39.2996 42 37.3922 42 35.3623C41.9912 34.063 41.9606 32.7943 41.9038 31.5957Z" />
</g>
<defs>
<filter id="filter0_d_103_140" x="0" y="-9.15527e-05" width="64" height="66.0926" filterUnits="userSpaceOnUse" color-interpolation-filters="sRGB">
<feFlood flood-opacity="0" result="BackgroundImageFix"/>
<feColorMatrix in="SourceAlpha" type="matrix" values="0 0 0 0 0 0 0 0 0 0 0 0 0 0 0 0 0 0 127 0" result="hardAlpha"/>
<feOffset dx="2" dy="2"/>
<feGaussianBlur stdDeviation="10"/>
<feColorMatrix type="matrix" values="0 0 0 0 0.937255 0 0 0 0 0.890196 0 0 0 0 0.784314 0 0 0 0.15 0"/>
<feBlend mode="normal" in2="BackgroundImageFix" result="effect1_dropShadow_103_140"/>
<feBlend mode="normal" in="SourceGraphic" in2="effect1_dropShadow_103_140" result="shape"/>
</filter>
</defs>
</svg>
