<svg width="20" height="22" viewBox="0 0 20 22" fill="none" xmlns="http://www.w3.org/2000/svg">
<path d="M18.3571 3.66667H13.2143V3C13.2137 2.46975 13.0104 1.96138 12.6488 1.58643C12.2872 1.21148 11.797 1.00058 11.2857 1H8.71429C8.20297 1.00058 7.71276 1.21148 7.3512 1.58643C6.98964 1.96138 6.78628 2.46975 6.78571 3V3.66667H1.64286C1.47236 3.66667 1.30885 3.7369 1.18829 3.86193C1.06773 3.98695 1 4.15652 1 4.33333C1 4.51014 1.06773 4.67971 1.18829 4.80474C1.30885 4.92976 1.47236 5 1.64286 5H2.98L4.11824 19.166C4.16094 19.6649 4.38156 20.1294 4.73697 20.4686C5.09238 20.8078 5.55701 20.9972 6.04 21H13.96C14.4431 20.9973 14.9078 20.8079 15.2633 20.4687C15.6188 20.1295 15.8394 19.665 15.8821 19.166L17.02 5H18.3571C18.5276 5 18.6912 4.92976 18.8117 4.80474C18.9323 4.67971 19 4.51014 19 4.33333C19 4.15652 18.9323 3.98695 18.8117 3.86193C18.6912 3.7369 18.5276 3.66667 18.3571 3.66667ZM8.07143 3C8.07165 2.82326 8.13945 2.65382 8.25996 2.52885C8.38047 2.40387 8.54386 2.33356 8.71429 2.33333H11.2857C11.4561 2.33356 11.6195 2.40387 11.74 2.52885C11.8605 2.65382 11.9284 2.82326 11.9286 3V3.66667H8.07143V3ZM14.6005 19.0553C14.5862 19.2216 14.5127 19.3764 14.3943 19.4895C14.2758 19.6025 14.121 19.6657 13.96 19.6667H6.04C5.87899 19.6658 5.7241 19.6026 5.60562 19.4896C5.48714 19.3765 5.41361 19.2217 5.39939 19.0553L4.27015 5H15.7298L14.6005 19.0553Z" fill="white" stroke="white" stroke-width="0.5"/>
<path d="M8.07175 7.66602C7.90125 7.66602 7.73774 7.73625 7.61718 7.86128C7.49662 7.9863 7.42889 8.15587 7.42889 8.33268V16.3327C7.42889 16.5095 7.49662 16.6791 7.61718 16.8041C7.73774 16.9291 7.90125 16.9993 8.07175 16.9993C8.24225 16.9993 8.40576 16.9291 8.52632 16.8041C8.64688 16.6791 8.71461 16.5095 8.71461 16.3327V8.33268C8.71461 8.15587 8.64688 7.9863 8.52632 7.86128C8.40576 7.73625 8.24225 7.66602 8.07175 7.66602Z" fill="white" stroke="white" stroke-width="0.5"/>
<path d="M11.9289 7.66602C11.7584 7.66602 11.5949 7.73625 11.4743 7.86128C11.3537 7.9863 11.286 8.15587 11.286 8.33268V16.3327C11.286 16.5095 11.3537 16.6791 11.4743 16.8041C11.5949 16.9291 11.7584 16.9993 11.9289 16.9993C12.0994 16.9993 12.2629 16.9291 12.3834 16.8041C12.504 16.6791 12.5717 16.5095 12.5717 16.3327V8.33268C12.5717 8.15587 12.504 7.9863 12.3834 7.86128C12.2629 7.73625 12.0994 7.66602 11.9289 7.66602Z" fill="white" stroke="white" stroke-width="0.5"/>
</svg>
